<svg width="24" height="24" viewBox="0 0 24 24" fill="none" xmlns="http://www.w3.org/2000/svg">
<path d="M15.5461 7C15.5461 4.79086 13.9791 3 12.0461 3C10.1131 3 8.54614 4.79086 8.54614 7" stroke="#fff" stroke-width="2" stroke-linecap="round" stroke-linejoin="round"/>
<path fill-rule="evenodd" clip-rule="evenodd" d="M3.45762 14.1091C3.77132 12.2269 3.92818 11.2858 4.39497 10.5778C4.81623 9.93897 5.41192 9.43435 6.11135 9.12385C6.88638 8.77979 7.84048 8.77979 9.74867 8.77979H13.8246C15.7328 8.77979 16.6869 8.77979 17.4619 9.12385C18.1614 9.43435 18.757 9.93897 19.1783 10.5778C19.6451 11.2858 19.802 12.2269 20.1157 14.1091C20.539 16.649 20.7506 17.919 20.3879 18.9101C20.0619 19.8008 19.4301 20.5467 18.6051 21.0147C17.687 21.5354 16.3995 21.5354 13.8246 21.5354H9.74867C7.17374 21.5354 5.88627 21.5354 4.96821 21.0147C4.14321 20.5467 3.51134 19.8008 3.18538 18.9101C2.82264 17.919 3.0343 16.649 3.45762 14.1091ZM8.06624 11.2187C8.48045 11.2187 8.81624 11.5545 8.81624 11.9687V13.0317C8.81624 13.4459 8.48045 13.7817 8.06624 13.7817C7.65203 13.7817 7.31624 13.4459 7.31624 13.0317V11.9687C7.31624 11.5545 7.65203 11.2187 8.06624 11.2187ZM16.257 11.9687C16.257 11.5545 15.9213 11.2187 15.507 11.2187C15.0928 11.2187 14.757 11.5545 14.757 11.9687V13.0317C14.757 13.4459 15.0928 13.7817 15.507 13.7817C15.9213 13.7817 16.257 13.4459 16.257 13.0317V11.9687Z" fill="#fff"/>
</svg>
