<svg width="40" height="40" viewBox="0 0 40 40" fill="none" xmlns="http://www.w3.org/2000/svg">
<path d="M23.5461 15C23.5461 12.7909 21.9791 11 20.0461 11C18.1131 11 16.5461 12.7909 16.5461 15" stroke="#283C92" stroke-width="2" stroke-linecap="round" stroke-linejoin="round"/>
<path fill-rule="evenodd" clip-rule="evenodd" d="M11.4576 22.1091C11.7713 20.2269 11.9282 19.2858 12.395 18.5778C12.8162 17.939 13.4119 17.4343 14.1113 17.1238C14.8864 16.7798 15.8405 16.7798 17.7487 16.7798H21.8246C23.7328 16.7798 24.6869 16.7798 25.4619 17.1238C26.1614 17.4343 26.757 17.939 27.1783 18.5778C27.6451 19.2858 27.802 20.2269 28.1157 22.1091C28.539 24.649 28.7506 25.919 28.3879 26.9101C28.0619 27.8008 27.4301 28.5467 26.6051 29.0147C25.687 29.5354 24.3995 29.5354 21.8246 29.5354H17.7487C15.1737 29.5354 13.8863 29.5354 12.9682 29.0147C12.1432 28.5467 11.5113 27.8008 11.1854 26.9101C10.8226 25.919 11.0343 24.649 11.4576 22.1091ZM16.0662 19.2187C16.4805 19.2187 16.8162 19.5545 16.8162 19.9687V21.0317C16.8162 21.4459 16.4805 21.7817 16.0662 21.7817C15.652 21.7817 15.3162 21.4459 15.3162 21.0317V19.9687C15.3162 19.5545 15.652 19.2187 16.0662 19.2187ZM24.257 19.9687C24.257 19.5545 23.9213 19.2187 23.507 19.2187C23.0928 19.2187 22.757 19.5545 22.757 19.9687V21.0317C22.757 21.4459 23.0928 21.7817 23.507 21.7817C23.9213 21.7817 24.257 21.4459 24.257 21.0317V19.9687Z" fill="#283C92"/>
<rect x="1" y="1" width="38" height="38" rx="19" stroke="#283C92" stroke-width="2"/>
</svg>
