<svg width="64" height="64" viewBox="0 0 64 64" fill="none" xmlns="http://www.w3.org/2000/svg">
<path d="M35.5459 27C35.5459 24.7909 33.9789 23 32.0459 23C30.1129 23 28.5459 24.7909 28.5459 27" stroke="#283C92" stroke-width="2" stroke-linecap="round" stroke-linejoin="round"/>
<path fill-rule="evenodd" clip-rule="evenodd" d="M23.4576 34.1091C23.7713 32.2269 23.9282 31.2858 24.395 30.5778C24.8162 29.939 25.4119 29.4343 26.1113 29.1238C26.8864 28.7798 27.8405 28.7798 29.7487 28.7798H33.8246C35.7328 28.7798 36.6869 28.7798 37.4619 29.1238C38.1614 29.4343 38.757 29.939 39.1783 30.5778C39.6451 31.2858 39.802 32.2269 40.1157 34.1091C40.539 36.649 40.7506 37.919 40.3879 38.9101C40.0619 39.8008 39.4301 40.5467 38.6051 41.0147C37.687 41.5354 36.3995 41.5354 33.8246 41.5354H29.7487C27.1737 41.5354 25.8863 41.5354 24.9682 41.0147C24.1432 40.5467 23.5113 39.8008 23.1854 38.9101C22.8226 37.919 23.0343 36.649 23.4576 34.1091ZM28.0662 31.2187C28.4805 31.2187 28.8162 31.5545 28.8162 31.9687V33.0317C28.8162 33.4459 28.4805 33.7817 28.0662 33.7817C27.652 33.7817 27.3162 33.4459 27.3162 33.0317V31.9687C27.3162 31.5545 27.652 31.2187 28.0662 31.2187ZM36.257 31.9687C36.257 31.5545 35.9213 31.2187 35.507 31.2187C35.0928 31.2187 34.757 31.5545 34.757 31.9687V33.0317C34.757 33.4459 35.0928 33.7817 35.507 33.7817C35.9213 33.7817 36.257 33.4459 36.257 33.0317V31.9687Z" fill="#283C92"/>
<rect x="1" y="1" width="62" height="62" rx="31" stroke="#283C92" stroke-width="2"/>
<g clip-path="url(#clip0_1691_6901)">
<rect x="36" y="35" width="14" height="14" rx="7" fill="#339999"/>
<path d="M41.9423 38.5V37.252H44.4383V46H43.0583V38.5H41.9423Z" fill="white"/>
</g>
<defs>
<clipPath id="clip0_1691_6901">
<rect x="36" y="35" width="14" height="14" rx="7" fill="white"/>
</clipPath>
</defs>
</svg>
